<svg xmlns="http://www.w3.org/2000/svg" viewBox="0 0 64 64">
  <title>Novent</title>
  <rect width="64" height="64" rx="13" fill="#0a0c0f"/>
  <path d="M14 8 H50 a6 6 0 0 1 6 6 V42 L42 56 H14 a6 6 0 0 1 -6 -6 V14 a6 6 0 0 1 6 -6 Z" fill="#10b981" fill-opacity="0.16" stroke="#10b981" stroke-width="3" stroke-linejoin="round"/>
  <path transform="translate(16 23.2) scale(0.2)" d="M0,88 L30,88 L46,44 L64,44 L80,88 L110,88 L126,44 L144,44 L160,0 L130,0 L114,44 L96,44 L80,0 L50,0 L34,44 L16,44 Z" fill="#10b981"/>
</svg>
